# xmcd
#
# Track frame offsets:
#	150
#	10598
#	25233
#	40634
#	58167
#	83798
#	106231
#	117240
#	140854
#	159261
#	182582
#	202727
#	222778
#	247193
#	264715
#
# Disc length: 3783 seconds
#
# Revision: 0
# Processed by: cddbd v1.5.1PL0 Copyright (c) Steve Scherf et al.
# Submitted via: dBpowerAMP V4.0
#
DISCID=c70ec50f
DTITLE=Buba Sparxxx - Deliverance
DYEAR=2003
DGENRE=Hip-Hop
TTITLE0=Intro
TTITLE1=Jimmy Mathis
TTITLE2=Comin' round
TTITLE3=She tried
TTITLE4=Nowhere
TTITLE5=Overcome
TTITLE6=Warrant Interlude
TTITLE7=Warrant
TTITLE8=New South
TTITLE9=Deliverance
TTITLE10=Hootnanny
TTITLE11=Take a Load off
TTITLE12=Like it or not
TTITLE13=My Tone
TTITLE14=Back in the Mud
EXTD=
EXTT0=
EXTT1=
EXTT2=
EXTT3=
EXTT4=
EXTT5=
EXTT6=
EXTT7=
EXTT8=
EXTT9=
EXTT10=
EXTT11=
EXTT12=
EXTT13=
EXTT14=
PLAYORDER=
